<?xml version="1.0" standalone="no"?>
<!DOCTYPE svg PUBLIC "-//W3C//DTD SVG 20010904//EN"
 "http://www.w3.org/TR/2001/REC-SVG-20010904/DTD/svg10.dtd">
<svg version="1.0" xmlns="http://www.w3.org/2000/svg"
 width="500.000000pt" height="300.000000pt" viewBox="0 0 500.000000 300.000000"
 preserveAspectRatio="xMidYMid meet">

<g transform="translate(0.000000,300.000000) scale(0.100000,-0.100000)"
fill="#000000" stroke="none">
<path d="M80 2415 l0 -545 469 0 470 0 40 78 c100 190 242 331 434 428 l67 34
-2 273 -3 272 -737 3 -738 2 0 -545z m797 323 c-37 -85 -66 -157 -72 -175 -9
-32 13 -30 114 12 57 24 87 31 92 24 10 -17 10 -347 -1 -354 -5 -3 -47 10 -94
30 -75 31 -116 42 -116 32 0 -12 41 -120 59 -155 11 -22 21 -44 21 -47 0 -7
-365 -7 -372 1 -3 3 9 41 28 84 36 82 42 120 22 120 -7 0 -51 -16 -98 -35 -47
-19 -88 -35 -92 -35 -5 0 -8 83 -8 185 0 102 3 185 8 185 4 0 45 -16 92 -35
47 -19 91 -35 99 -35 19 0 7 53 -29 134 -17 36 -30 68 -30 71 0 3 86 5 191 5
149 0 190 -3 186 -12z"/>
<path d="M553 2703 c3 -10 15 -44 26 -75 11 -31 22 -72 23 -90 3 -30 1 -33
-22 -30 -23 3 -134 39 -172 56 -17 8 -18 -3 -18 -139 0 -136 1 -147 18 -140
92 38 147 55 173 55 29 0 30 -1 24 -32 -4 -18 -16 -58 -27 -88 -11 -30 -22
-63 -25 -72 -5 -17 6 -18 137 -18 131 0 142 1 137 18 -4 9 -18 49 -31 87 -14
39 -26 80 -26 92 0 21 1 21 60 7 34 -8 73 -20 88 -28 15 -7 37 -17 50 -20 l22
-7 0 139 c0 76 -3 141 -6 145 -3 3 -27 -3 -52 -14 -26 -11 -73 -26 -104 -34
-57 -13 -58 -13 -58 8 0 12 12 54 26 92 13 39 27 78 31 88 5 16 -6 17 -137 17
-131 0 -142 -1 -137 -17z m244 -17 c-21 -54 -47 -153 -47 -178 0 -29 0 -30 43
-23 23 4 67 16 97 27 30 10 60 20 65 21 10 2 20 -185 11 -208 -3 -9 -24 -6
-73 10 -37 13 -85 26 -105 29 -37 7 -38 6 -38 -22 0 -25 26 -125 47 -178 4
-11 -16 -14 -106 -14 -61 0 -111 3 -111 8 0 4 9 30 19 58 11 28 23 75 27 104
l7 53 -39 -7 c-21 -4 -70 -18 -107 -30 -49 -17 -70 -20 -73 -11 -9 23 1 210
11 208 6 -1 35 -11 65 -21 30 -11 75 -23 99 -27 l44 -7 -7 52 c-4 29 -16 76
-27 104 -10 28 -19 54 -19 59 0 4 50 7 111 7 90 0 110 -3 106 -14z"/>
<path d="M605 2681 c-2 -4 5 -32 16 -64 10 -31 20 -78 22 -104 l2 -48 -35 3
c-31 3 -89 17 -157 38 -23 6 -23 5 -23 -81 0 -86 0 -87 23 -81 150 43 197 47
197 18 0 -19 -33 -153 -45 -184 -7 -16 1 -18 84 -18 50 0 91 2 91 3 0 2 -9 30
-20 61 -11 32 -22 80 -26 107 l-7 49 35 0 c29 0 72 -9 166 -36 22 -6 22 -5 22
80 0 47 -3 86 -6 86 -3 0 -36 -9 -72 -19 -37 -11 -84 -22 -106 -25 l-39 -5 7
52 c3 29 14 79 25 110 11 32 16 59 10 62 -12 8 -159 4 -164 -4z"/>
<path d="M1630 2660 l0 -301 -74 -33 c-203 -93 -362 -253 -454 -458 l-31 -68
-498 -2 -498 -3 0 -30 0 -30 527 -3 526 -2 13 37 c24 76 91 198 143 263 86
106 249 218 379 260 l37 12 0 329 0 329 -35 0 -35 0 0 -300z"/>
<path d="M1780 2643 l0 -318 145 0 145 0 0 317 0 318 -145 0 -145 0 0 -317z"/>
<path d="M2140 2632 l0 -328 72 -28 c219 -86 398 -261 479 -471 l28 -70 1110
-3 1111 -2 0 35 0 35 -1083 0 -1083 0 -29 67 c-43 100 -115 201 -198 280 -92
88 -146 125 -253 174 l-84 39 0 300 0 300 -35 0 -35 0 0 -328z"/>
<path d="M2290 2681 c0 -274 0 -280 21 -286 41 -13 165 -89 219 -133 113 -93
206 -210 265 -330 l30 -62 1058 0 1057 0 0 545 0 545 -1325 0 -1325 0 0 -279z"/>
<path d="M1808 2280 c-187 -26 -393 -146 -505 -295 -158 -208 -201 -472 -119
-731 62 -194 214 -363 409 -455 213 -99 473 -93 687 17 227 116 379 329 420
587 13 81 -1 268 -24 337 -43 128 -152 284 -259 370 -75 61 -218 133 -307 154
-85 20 -218 27 -302 16z m254 -54 c154 -30 284 -102 395 -220 77 -82 124 -156
161 -254 24 -62 26 -79 26 -237 1 -139 -2 -180 -17 -224 -68 -201 -198 -351
-382 -441 -157 -77 -312 -97 -472 -62 -267 60 -468 238 -553 490 -26 80 -37
256 -21 365 13 91 59 199 125 291 165 232 455 346 738 292z"/>
<path d="M1604 2027 c-4 -11 0 -33 9 -53 16 -32 16 -34 -1 -34 -9 0 -50 18
-90 40 -83 45 -92 47 -92 22 0 -20 48 -69 100 -102 l35 -22 -40 6 c-22 3 -57
9 -79 12 -33 6 -38 5 -35 -11 6 -26 48 -54 105 -70 l49 -13 -77 -1 c-58 -1
-78 -4 -78 -14 0 -20 44 -37 95 -37 25 0 45 -4 45 -9 0 -5 -32 -22 -70 -37
-51 -20 -70 -32 -68 -43 4 -21 52 -26 101 -11 22 6 41 9 43 7 3 -3 -28 -47
-69 -99 -89 -113 -90 -115 -82 -128 10 -16 83 30 130 83 24 26 45 47 48 47 9
0 -53 -153 -85 -208 -22 -40 -27 -57 -19 -65 16 -16 14 -64 -4 -71 -21 -8 -19
-29 6 -44 16 -10 19 -19 14 -42 -9 -40 21 -44 63 -8 26 22 38 26 65 21 46 -8
53 -19 18 -26 -39 -8 -59 -44 -42 -76 16 -29 30 -26 28 5 -3 40 16 39 59 -2
36 -33 43 -36 87 -31 36 3 55 11 73 31 14 14 28 26 31 26 15 0 -45 -54 -74
-66 -18 -8 -33 -17 -33 -20 0 -11 55 7 83 27 34 25 36 7 1 -20 -14 -11 -49
-23 -82 -27 -53 -6 -82 -18 -82 -33 0 -3 28 -5 62 -4 35 1 71 2 80 3 9 0 29
12 44 28 l26 27 -7 -25 c-18 -64 -17 -77 6 -94 22 -15 25 -15 47 7 19 20 21
27 12 51 -17 46 -12 57 15 31 13 -14 34 -25 47 -25 13 -1 49 -2 81 -3 90 -3
67 25 -32 38 -39 5 -61 15 -85 37 l-31 30 32 -21 c17 -12 46 -24 65 -27 l33
-5 -37 21 c-21 11 -38 23 -38 26 0 2 9 0 19 -6 11 -5 37 -10 57 -10 30 0 46 8
74 35 25 24 42 34 53 29 20 -7 22 -25 5 -43 -11 -11 -10 -13 1 -9 45 14 38 85
-9 95 -36 7 -40 23 -6 23 13 0 31 3 39 6 9 3 28 -7 45 -25 40 -38 76 -33 67 9
-5 21 -1 32 15 43 20 14 19 47 -1 47 -13 0 -11 54 2 67 7 7 1 25 -21 59 -25
42 -69 143 -87 207 -3 9 26 -14 65 -53 42 -42 78 -70 91 -70 12 0 21 5 21 10
0 6 -34 56 -76 111 -42 55 -74 103 -71 105 2 3 16 0 31 -6 47 -17 116 -10 116
12 0 5 -35 26 -77 46 l-78 36 61 6 c57 5 94 21 94 41 0 5 -33 9 -72 10 l-73 1
46 14 c45 14 99 56 99 77 0 6 -15 7 -37 3 -21 -3 -56 -9 -78 -12 l-40 -6 55
38 c55 39 91 86 77 100 -4 4 -44 -11 -88 -34 -104 -54 -112 -54 -92 -2 24 61
4 72 -38 21 -18 -23 -39 -41 -47 -41 -20 0 -51 -41 -52 -67 0 -24 34 -53 62
-53 22 0 23 -8 2 -31 -14 -16 -14 -20 1 -49 9 -18 15 -33 13 -35 -2 -2 -36 -5
-76 -8 -58 -4 -70 -2 -62 8 8 10 6 15 -9 20 -29 9 -26 25 3 25 14 0 28 5 32
11 3 6 17 8 30 5 34 -9 31 15 -6 42 -16 12 -34 22 -40 22 -13 0 -13 -17 0 -25
16 -10 1 -25 -26 -25 -14 0 -24 6 -24 14 0 8 -3 21 -6 30 -4 12 0 16 15 16 28
0 27 13 -1 25 -35 15 -36 45 -1 46 l28 1 -30 13 c-25 11 -27 14 -12 20 9 4 17
11 17 16 0 4 -6 6 -14 3 -7 -3 -27 6 -44 20 -40 34 -66 35 -134 3 -73 -33 -75
-51 -7 -54 28 0 56 -6 62 -12 8 -8 -8 -10 -56 -8 -45 2 -66 0 -64 -7 2 -6 15
-10 28 -10 13 1 28 -5 32 -12 4 -8 19 -14 33 -14 27 0 27 -3 3 -68 -12 -32
-55 -27 -52 6 3 27 0 27 -37 0 -37 -27 -40 -51 -6 -42 13 3 27 1 30 -5 4 -6
18 -11 32 -11 29 0 32 -16 3 -25 -15 -5 -17 -10 -9 -20 9 -11 -2 -12 -62 -8
-40 3 -75 7 -77 9 -3 2 3 20 12 38 14 30 14 36 1 46 -21 18 -17 27 13 35 38 9
53 23 53 49 0 22 -37 66 -56 66 -5 0 -26 19 -46 42 -32 37 -37 41 -44 25z
m377 -284 c-12 -20 -14 -14 -5 12 4 9 9 14 11 11 3 -2 0 -13 -6 -23z m-91 -3
c0 -5 -5 -10 -11 -10 -5 0 -7 5 -4 10 3 6 8 10 11 10 2 0 4 -4 4 -10z m-74
-276 c-6 -29 -40 -64 -51 -52 -4 3 8 44 31 108 10 28 26 -19 20 -56z m256 -1
c9 -32 15 -59 13 -61 -2 -2 -15 7 -29 21 -25 25 -36 84 -19 100 10 11 16 1 35
-60z m-432 -35 c-12 -40 -24 -81 -26 -90 -8 -29 22 -21 50 12 14 17 33 55 42
85 10 30 20 55 23 55 9 0 6 -111 -3 -138 -4 -14 -24 -31 -44 -40 -27 -11 -32
-17 -19 -20 9 -2 17 -8 17 -14 0 -13 -59 -68 -74 -68 -19 1 -43 24 -47 45 -3
11 -14 21 -26 23 -21 3 -20 6 18 55 22 29 54 80 71 115 17 34 33 60 35 58 3
-2 -5 -37 -17 -78z m660 -99 c35 -45 36 -49 10 -49 -13 0 -20 -7 -20 -20 0
-11 -12 -27 -26 -36 -24 -16 -27 -16 -51 2 -36 27 -52 55 -35 61 20 7 14 20
-13 27 -35 9 -48 41 -50 120 -1 52 1 63 9 45 41 -103 86 -173 101 -158 2 3 -5
45 -16 94 -10 49 -19 91 -19 94 0 4 18 -27 40 -68 21 -41 53 -91 70 -112z
m-436 116 c3 -8 1 -15 -4 -15 -6 0 -10 7 -10 15 0 8 2 15 4 15 2 0 6 -7 10
-15z m129 0 c-3 -9 -8 -14 -10 -11 -3 3 -2 9 2 15 9 16 15 13 8 -4z m307 -45
c0 -5 -2 -10 -4 -10 -3 0 -8 5 -11 10 -3 6 -1 10 4 10 6 0 11 -4 11 -10z
m-419 -77 c6 -16 8 -44 5 -63 -9 -54 -59 -81 -74 -39 -7 18 -10 17 -41 -21
-21 -27 -30 -47 -26 -58 6 -16 7 -16 16 0 5 10 26 20 47 24 20 4 45 11 55 16
12 6 17 5 17 -6 0 -21 -29 -34 -64 -29 -32 5 -51 -14 -34 -34 7 -9 7 -13 -1
-13 -17 0 -13 -20 5 -27 10 -4 28 7 51 31 46 47 58 46 26 -3 -39 -60 -133 -82
-133 -32 0 11 5 23 10 26 24 15 8 26 -27 19 -35 -6 -36 -5 -19 8 25 20 14 48
-19 48 -33 0 -32 10 5 45 26 25 33 28 50 17 27 -17 30 -15 30 12 0 13 7 29 15
36 12 10 15 10 15 -4 0 -9 5 -16 10 -16 6 0 10 6 10 13 0 18 38 77 50 77 6 0
15 -12 21 -27z m144 -21 c20 -43 35 -54 35 -26 0 25 18 6 25 -26 7 -30 19 -38
30 -20 10 15 21 12 54 -16 39 -32 39 -44 1 -44 -23 0 -30 -4 -30 -20 0 -10 8
-24 18 -30 13 -8 7 -9 -28 -4 -37 5 -43 4 -32 -7 17 -19 15 -56 -5 -63 -40
-16 -133 50 -121 86 4 12 10 7 46 -41 26 -33 51 -23 49 21 -2 31 -4 33 -43 36
-26 2 -49 11 -59 23 -10 10 -15 19 -11 19 20 0 113 -35 129 -48 30 -27 21 21
-11 56 -24 26 -30 28 -38 15 -8 -13 -16 -14 -39 -6 -28 9 -30 14 -33 63 -2 29
-1 59 2 67 10 26 40 9 61 -35z m-475 -92 c0 -5 -4 -10 -9 -10 -6 0 -13 5 -16
10 -3 6 1 10 9 10 9 0 16 -4 16 -10z m775 0 c-3 -5 -10 -10 -16 -10 -5 0 -9 5
-9 10 0 6 7 10 16 10 8 0 12 -4 9 -10z m-782 -47 c-7 -2 -19 -2 -25 0 -7 3 -2
5 12 5 14 0 19 -2 13 -5z m784 1 c-3 -3 -12 -4 -19 -1 -8 3 -5 6 6 6 11 1 17
-2 13 -5z m-405 -76 c-10 -22 -11 -21 -11 12 -1 26 2 31 11 22 8 -8 8 -17 0
-34z"/>
<path d="M74 1647 c-2 -7 -3 -74 -2 -148 l3 -134 514 0 514 0 1 148 1 147
-513 0 c-411 0 -514 -3 -518 -13z"/>
<path d="M2744 1647 c-2 -7 -3 -74 -2 -148 l3 -134 1095 0 1095 0 3 148 3 147
-1096 0 c-872 -1 -1097 -3 -1101 -13z"/>
<path d="M74 1276 c-3 -8 -4 -23 -2 -33 3 -17 30 -18 501 -21 l497 -2 26 -58
c99 -225 260 -389 468 -477 l66 -28 0 -304 0 -303 35 0 35 0 0 335 c0 276 -2
335 -14 335 -7 0 -45 13 -83 29 -212 87 -368 252 -454 479 l-24 62 -523 0
c-446 0 -523 -2 -528 -14z"/>
<path d="M2705 1243 c-87 -234 -255 -409 -479 -500 l-81 -32 -3 -331 -2 -330
35 0 c30 0 35 3 35 23 0 12 1 147 3 301 l2 279 100 51 c206 105 340 244 431
442 l33 74 1081 0 1080 0 0 35 0 35 -1109 0 -1108 0 -18 -47z"/>
<path d="M528 1142 l-448 -2 0 -545 0 -545 738 2 737 3 0 275 0 275 -92 50
c-117 64 -197 127 -264 207 -63 76 -145 201 -159 244 -8 24 -18 33 -38 35 -15
2 -228 3 -474 1z"/>
<path d="M2839 1142 c-8 -1 -28 -28 -43 -59 -92 -188 -280 -374 -459 -453
l-47 -21 0 -279 0 -280 1325 0 1325 0 0 545 c0 429 -3 545 -12 545 -105 2
-2079 4 -2089 2z"/>
<path d="M1780 369 l0 -319 145 0 145 0 0 319 0 319 -145 0 -145 0 0 -319z"/>
</g>
</svg>
